<svg width="40" height="40" viewBox="0 0 40 40" fill="none" xmlns="http://www.w3.org/2000/svg">
<g clip-path="url(#clip0_247_439)">
<path d="M13.7844 3.9931C17.0924 0.271292 22.9076 0.271292 26.2156 3.9931V3.9931C27.4066 5.33306 28.9987 6.25226 30.7546 6.6137V6.6137C35.6318 7.61761 38.5394 12.6537 36.9702 17.3794V17.3794C36.4052 19.0808 36.4052 20.9192 36.9702 22.6206V22.6206C38.5394 27.3463 35.6318 32.3824 30.7546 33.3863V33.3863C28.9987 33.7477 27.4066 34.6669 26.2156 36.0069V36.0069C22.9076 39.7287 17.0924 39.7287 13.7844 36.0069V36.0069C12.5934 34.6669 11.0013 33.7477 9.24541 33.3863V33.3863C4.36823 32.3824 1.46065 27.3463 3.02983 22.6206V22.6206C3.59478 20.9192 3.59478 19.0808 3.02983 17.3794V17.3794C1.46065 12.6537 4.36823 7.61761 9.24541 6.6137V6.6137C11.0013 6.25226 12.5934 5.33306 13.7844 3.9931V3.9931Z" fill="#F69BDB"/>
<path d="M14.5322 4.65723C17.4424 1.38337 22.5576 1.38337 25.4678 4.65723C26.8019 6.15824 28.5858 7.18783 30.5527 7.59277C34.8434 8.47596 37.402 12.907 36.0215 17.0645C35.3886 18.9704 35.3886 21.0296 36.0215 22.9355C37.402 27.093 34.8434 31.524 30.5527 32.4072C28.5858 32.8122 26.8019 33.8418 25.4678 35.3428C22.5576 38.6166 17.4424 38.6166 14.5322 35.3428C13.1981 33.8418 11.4142 32.8122 9.44727 32.4072C5.15657 31.524 2.59803 27.093 3.97852 22.9355C4.61138 21.0296 4.61138 18.9704 3.97852 17.0645C2.59803 12.907 5.15657 8.47596 9.44727 7.59277C11.4142 7.18783 13.1981 6.15824 14.5322 4.65723Z" stroke="white" stroke-opacity="0.6" stroke-width="2"/>
<circle cx="20" cy="20" r="9" fill="#F5C87B"/>
<circle cx="20" cy="20" r="8" stroke="white" stroke-opacity="0.6" stroke-width="2"/>
</g>
<defs>
<clipPath id="clip0_247_439">
<rect width="40" height="40" fill="white"/>
</clipPath>
</defs>
</svg>
