<svg width="40" height="40" viewBox="0 0 40 40" fill="none" xmlns="http://www.w3.org/2000/svg">
<g clip-path="url(#clip0_247_374)">
<path d="M14.5322 4.65723C17.4424 1.38337 22.5576 1.38337 25.4678 4.65723C26.8019 6.15824 28.5858 7.18783 30.5527 7.59277C34.8434 8.47596 37.402 12.907 36.0215 17.0645C35.3886 18.9704 35.3886 21.0296 36.0215 22.9355C37.402 27.093 34.8434 31.524 30.5527 32.4072C28.5858 32.8122 26.8019 33.8418 25.4678 35.3428C22.5576 38.6166 17.4424 38.6166 14.5322 35.3428C13.1981 33.8418 11.4142 32.8122 9.44727 32.4072C5.15657 31.524 2.59803 27.093 3.97852 22.9355C4.61138 21.0296 4.61138 18.9704 3.97852 17.0645C2.59803 12.907 5.15657 8.47596 9.44727 7.59277C11.4142 7.18783 13.1981 6.15824 14.5322 4.65723Z" fill="#F0C7E4" stroke="#5D5562" stroke-width="2"/>
<circle cx="20" cy="20" r="8" fill="#FFDB9D" stroke="#5D5562" stroke-width="2"/>
</g>
<defs>
<clipPath id="clip0_247_374">
<rect width="40" height="40" fill="white"/>
</clipPath>
</defs>
</svg>
